Motion_pl16
version=1
nRows=6
nColumns=43
inDegrees=yes
endheader
time	pelvis_tilt	pelvis_list	pelvis_rotation	pelvis_tx	pelvis_ty	pelvis_tz	hip_flexion_r	hip_adduction_r	hip_rotation_r	knee_angle_r	ankle_angle_r	subtalar_angle_r	mtp_angle_r	hip_flexion_l	hip_adduction_l	hip_rotation_l	knee_angle_l	ankle_angle_l	subtalar_angle_l	mtp_angle_l	lumbar_extension	lumbar_bending	lumbar_rotation	neck_flexion	neck_lateral_bending	neck_rotation	arm_flex_r	arm_add_r	arm_rot_r	elbow_flex_r	pro_sup_r	wrist_flex_r	wrist_dev_r	hand_finger_flex_r	arm_flex_l	arm_add_l	arm_rot_l	elbow_flex_l	pro_sup_l	wrist_flex_l	wrist_dev_l	hand_finger_flex_l
      1.14000000	     -0.85028532	     -2.09504756	     84.56435974	     -0.02014842	      0.72673601	      0.58338606	     61.88303112	      2.50845003	      2.19850937	    -87.82340469	     15.80799831	     -0.83462770	     20.71149924	     60.13111144	     -5.64600350	     -2.88295595	    -87.33724435	     12.82387031	      4.47354130	     28.82653683	    -34.48029160	     -1.03779175	      1.00627011	    -16.84559176	     -4.03230565	      3.34516802	    -33.57250313	    -18.07449139	    -27.28058141	     65.34728731	    111.71818945	    -11.67546841	     -1.74037161	     23.12238509	    -45.33016820	    -12.49983184	    -29.70783758	     61.75073966	     92.21614266	    -17.77382202	    -11.11188887	     21.73223793
      1.14250000	     -0.83103324	     -1.58356895	     84.44157724	     -0.01980679	      0.71970228	      0.58237651	     62.64512903	      2.73005908	      2.23387896	    -89.90271471	     15.41266645	     -1.06712664	     20.81521205	     60.93106922	     -5.65872726	     -2.69852568	    -89.37328845	     12.12113650	      4.11831656	     28.90854891	    -35.73456043	     -1.22924316	      1.16837911	    -15.69359104	     -3.86926505	      3.14855158	    -31.81773886	    -18.30621124	    -26.86388690	     65.61228261	    111.88740624	    -11.81792835	     -1.72813647	     23.17975533	    -43.55363562	    -12.96786822	    -29.56301631	     62.11771102	     92.23017677	    -17.79023839	    -11.14765805	     21.75116939
      1.14500000	     -0.84816329	     -0.89441238	     84.31138478	     -0.01951026	      0.71352012	      0.58128314	     63.07629635	      2.88565561	      2.26735676	    -91.78143591	     15.04800731	     -1.43157463	     21.32113113	     61.38934999	     -5.64220046	     -2.61104047	    -91.22238976	     11.31591339	      3.38211904	     29.16133933	    -37.21138780	     -1.46017379	      1.26520711	    -14.57409298	     -3.70914784	      3.04082487	    -29.96141139	    -18.54847428	    -26.31679238	     65.87186556	    112.04847412	    -12.32310940	     -1.57221565	     23.41022498	    -41.60900159	    -13.33501881	    -29.54898013	     62.38930250	     92.44380370	    -17.81711021	    -11.11784989	     21.88493516
      1.14750000	     -0.87476457	     -0.33284817	     84.21954283	     -0.01933953	      0.70711209	      0.58029327	     63.63016697	      2.97825895	      2.32511253	    -93.62306762	     14.79551074	     -1.30746268	     21.63947505	     61.92595117	     -5.65267527	     -2.53061423	    -93.00690545	     11.02049575	      3.33694529	     29.29885123	    -38.56480730	     -1.67252400	      1.36072666	    -13.36203905	     -3.56354656	      2.85555907	    -28.19586341	    -18.84923285	    -25.79254804	     66.20107490	    112.11658482	    -12.45383026	     -1.54095299	     23.58028385	    -39.78278318	    -13.75665794	    -29.45003804	     62.87527560	     92.61743558	    -17.78735536	    -11.10277062	     21.95387415
      1.15000000	     -0.97627515	      0.65342071	     84.07527209	     -0.01916085	      0.70226876	      0.57929773	     63.55760551	      3.00780529	      2.49481501	    -95.21217427	     14.66392489	     -1.18674620	     22.74773219	     61.78205138	     -5.66207055	     -2.64415617	    -94.53102362	     10.70568350	      3.22391296	     29.72351037	    -40.45175713	     -2.01888996	      1.36386821	    -12.06760015	     -3.38617620	      2.86041914	    -26.19854686	    -19.15496202	    -25.12160532	     66.46967884	    112.11947836	    -13.03732888	     -1.28488007	     24.22841538	    -37.74062867	    -14.04460809	    -29.56713315	     63.31999652	     93.11560725	    -17.76979120	    -10.87579512	     22.18480193
      1.15250000	     -1.01012674	      0.98210602	     84.01374230	     -0.01906652	      0.69618428	      0.57856061	     64.20262654	      3.03148673	      2.51508111	    -96.72993981	     14.50885265	     -0.97461177	     22.93910190	     62.40754311	     -5.70528187	     -2.57384416	    -96.06922268	     10.65519143	      3.32499408	     29.79422827	    -41.58019723	     -2.19330150	      1.41700962	    -10.96773864	     -3.23142858	      2.65324578	    -24.32055513	    -19.43552685	    -24.58636643	     66.72184171	    112.18625882	    -12.98653905	     -1.28851785	     24.35467195	    -35.79524895	    -14.53534479	    -29.30281477	     63.67074285	     93.23705832	    -17.70816486	    -10.80878319	     22.20940287
